<mxfile host="app.diagrams.net" modified="2023-09-26T03:29:48.043Z" agent="Mozilla/5.0 (Windows NT 10.0; Win64; x64; rv:109.0) Gecko/20100101 Firefox/117.0" etag="IFgCMofJshnDSgKXRs4k" version="21.8.2" type="github">
  <diagram id="kgpKYQtTHZ0yAKxKKP6v" name="Page-1">
    <mxGraphModel dx="989" dy="514" grid="1" gridSize="10" guides="1" tooltips="1" connect="1" arrows="1" fold="1" page="1" pageScale="1" pageWidth="850" pageHeight="1100" math="0" shadow="0">
      <root>
        <mxCell id="0" />
        <mxCell id="1" parent="0" />
        <mxCell id="3nuBFxr9cyL0pnOWT2aG-1" value="Load PatchDatabase online mode" style="shape=table;childLayout=tableLayout;startSize=40;collapsible=0;recursiveResize=0;expand=0;fillColor=none;fontStyle=1" parent="1" vertex="1">
          <mxGeometry x="100" y="100" width="670" height="390" as="geometry" />
        </mxCell>
        <mxCell id="3nuBFxr9cyL0pnOWT2aG-3" value="VCrom" style="shape=tableRow;horizontal=0;swimlaneHead=0;swimlaneBody=0;top=0;left=0;bottom=0;right=0;fillColor=none;points=[[0,0.5],[1,0.5]];portConstraint=eastwest;startSize=40;collapsible=0;recursiveResize=0;expand=0;fontStyle=1;" parent="3nuBFxr9cyL0pnOWT2aG-1" vertex="1">
          <mxGeometry y="40" width="670" height="220" as="geometry" />
        </mxCell>
        <mxCell id="3nuBFxr9cyL0pnOWT2aG-4" value="Gen file" style="swimlane;swimlaneHead=0;swimlaneBody=0;connectable=0;fillColor=none;startSize=40;collapsible=0;recursiveResize=0;expand=0;fontStyle=1;" parent="3nuBFxr9cyL0pnOWT2aG-3" vertex="1">
          <mxGeometry x="40" width="130" height="220" as="geometry">
            <mxRectangle width="130" height="220" as="alternateBounds" />
          </mxGeometry>
        </mxCell>
        <mxCell id="3nuBFxr9cyL0pnOWT2aG-5" style="edgeStyle=orthogonalEdgeStyle;rounded=0;orthogonalLoop=1;jettySize=auto;html=1;" parent="3nuBFxr9cyL0pnOWT2aG-4" source="3nuBFxr9cyL0pnOWT2aG-6" target="3nuBFxr9cyL0pnOWT2aG-7" edge="1">
          <mxGeometry relative="1" as="geometry" />
        </mxCell>
        <mxCell id="3nuBFxr9cyL0pnOWT2aG-6" value="Start" style="rounded=1;whiteSpace=wrap;html=1;arcSize=50;" parent="3nuBFxr9cyL0pnOWT2aG-4" vertex="1">
          <mxGeometry x="20" y="60" width="90" height="40" as="geometry" />
        </mxCell>
        <mxCell id="3nuBFxr9cyL0pnOWT2aG-7" value="Gen patch_info.json" style="rounded=0;whiteSpace=wrap;html=1;" parent="3nuBFxr9cyL0pnOWT2aG-4" vertex="1">
          <mxGeometry x="20" y="120" width="90" height="50" as="geometry" />
        </mxCell>
        <mxCell id="3nuBFxr9cyL0pnOWT2aG-8" value="Runing online server" style="swimlane;swimlaneHead=0;swimlaneBody=0;connectable=0;fillColor=none;startSize=40;collapsible=0;recursiveResize=0;expand=0;fontStyle=1;" parent="3nuBFxr9cyL0pnOWT2aG-3" vertex="1">
          <mxGeometry x="170" width="370" height="220" as="geometry">
            <mxRectangle width="370" height="220" as="alternateBounds" />
          </mxGeometry>
        </mxCell>
        <mxCell id="3nuBFxr9cyL0pnOWT2aG-9" value="Public file on server" style="rounded=0;whiteSpace=wrap;html=1;" parent="3nuBFxr9cyL0pnOWT2aG-8" vertex="1">
          <mxGeometry x="50" y="120" width="90" height="50" as="geometry" />
        </mxCell>
        <mxCell id="3nuBFxr9cyL0pnOWT2aG-11" value="" style="swimlane;swimlaneHead=0;swimlaneBody=0;connectable=0;fillColor=none;startSize=40;collapsible=0;recursiveResize=0;expand=0;fontStyle=1;" parent="3nuBFxr9cyL0pnOWT2aG-3" vertex="1">
          <mxGeometry x="540" width="130" height="220" as="geometry">
            <mxRectangle width="130" height="220" as="alternateBounds" />
          </mxGeometry>
        </mxCell>
        <mxCell id="-HL-1urw1G0gu24NOg6U-2" value="" style="edgeStyle=orthogonalEdgeStyle;rounded=0;orthogonalLoop=1;jettySize=auto;html=1;" edge="1" parent="3nuBFxr9cyL0pnOWT2aG-3" source="3nuBFxr9cyL0pnOWT2aG-7" target="3nuBFxr9cyL0pnOWT2aG-9">
          <mxGeometry relative="1" as="geometry" />
        </mxCell>
        <mxCell id="3nuBFxr9cyL0pnOWT2aG-15" value="Customer" style="shape=tableRow;horizontal=0;swimlaneHead=0;swimlaneBody=0;top=0;left=0;bottom=0;right=0;fillColor=none;points=[[0,0.5],[1,0.5]];portConstraint=eastwest;startSize=40;collapsible=0;recursiveResize=0;expand=0;fontStyle=1;" parent="3nuBFxr9cyL0pnOWT2aG-1" vertex="1">
          <mxGeometry y="260" width="670" height="130" as="geometry" />
        </mxCell>
        <mxCell id="3nuBFxr9cyL0pnOWT2aG-16" value="" style="swimlane;swimlaneHead=0;swimlaneBody=0;connectable=0;fillColor=none;startSize=0;collapsible=0;recursiveResize=0;expand=0;fontStyle=1;" parent="3nuBFxr9cyL0pnOWT2aG-15" vertex="1">
          <mxGeometry x="40" width="130" height="130" as="geometry">
            <mxRectangle width="130" height="130" as="alternateBounds" />
          </mxGeometry>
        </mxCell>
        <mxCell id="3nuBFxr9cyL0pnOWT2aG-17" value="Get latest SDK" style="rounded=0;whiteSpace=wrap;html=1;" parent="3nuBFxr9cyL0pnOWT2aG-16" vertex="1">
          <mxGeometry x="20" y="40" width="100" height="50" as="geometry" />
        </mxCell>
        <mxCell id="3nuBFxr9cyL0pnOWT2aG-18" value="" style="swimlane;swimlaneHead=0;swimlaneBody=0;connectable=0;fillColor=none;startSize=0;collapsible=0;recursiveResize=0;expand=0;fontStyle=1;" parent="3nuBFxr9cyL0pnOWT2aG-15" vertex="1">
          <mxGeometry x="170" width="370" height="130" as="geometry">
            <mxRectangle width="370" height="130" as="alternateBounds" />
          </mxGeometry>
        </mxCell>
        <mxCell id="-HL-1urw1G0gu24NOg6U-9" style="edgeStyle=orthogonalEdgeStyle;rounded=0;orthogonalLoop=1;jettySize=auto;html=1;entryX=0;entryY=0.5;entryDx=0;entryDy=0;" edge="1" parent="3nuBFxr9cyL0pnOWT2aG-18" source="3nuBFxr9cyL0pnOWT2aG-21" target="3nuBFxr9cyL0pnOWT2aG-22">
          <mxGeometry relative="1" as="geometry" />
        </mxCell>
        <mxCell id="3nuBFxr9cyL0pnOWT2aG-21" value="Call LoadPatchDatabase online mode" style="shape=document;whiteSpace=wrap;html=1;boundedLbl=1;" parent="3nuBFxr9cyL0pnOWT2aG-18" vertex="1">
          <mxGeometry x="35" y="27.5" width="120" height="75" as="geometry" />
        </mxCell>
        <mxCell id="3nuBFxr9cyL0pnOWT2aG-22" value="Vmod read the file and display the infomation" style="shape=process;whiteSpace=wrap;html=1;backgroundOutline=1;" parent="3nuBFxr9cyL0pnOWT2aG-18" vertex="1">
          <mxGeometry x="210" y="25" width="130" height="80" as="geometry" />
        </mxCell>
        <mxCell id="3nuBFxr9cyL0pnOWT2aG-23" value="" style="swimlane;swimlaneHead=0;swimlaneBody=0;connectable=0;fillColor=none;startSize=0;collapsible=0;recursiveResize=0;expand=0;fontStyle=1;" parent="3nuBFxr9cyL0pnOWT2aG-15" vertex="1">
          <mxGeometry x="540" width="130" height="130" as="geometry">
            <mxRectangle width="130" height="130" as="alternateBounds" />
          </mxGeometry>
        </mxCell>
        <mxCell id="-HL-1urw1G0gu24NOg6U-7" value="End" style="rounded=1;whiteSpace=wrap;html=1;arcSize=50;" vertex="1" parent="3nuBFxr9cyL0pnOWT2aG-23">
          <mxGeometry x="20" y="45" width="90" height="40" as="geometry" />
        </mxCell>
        <mxCell id="-HL-1urw1G0gu24NOg6U-4" style="edgeStyle=orthogonalEdgeStyle;rounded=0;orthogonalLoop=1;jettySize=auto;html=1;entryX=0;entryY=0.5;entryDx=0;entryDy=0;" edge="1" parent="3nuBFxr9cyL0pnOWT2aG-15" source="3nuBFxr9cyL0pnOWT2aG-17" target="3nuBFxr9cyL0pnOWT2aG-21">
          <mxGeometry relative="1" as="geometry" />
        </mxCell>
        <mxCell id="-HL-1urw1G0gu24NOg6U-8" style="edgeStyle=orthogonalEdgeStyle;rounded=0;orthogonalLoop=1;jettySize=auto;html=1;entryX=0;entryY=0.5;entryDx=0;entryDy=0;" edge="1" parent="3nuBFxr9cyL0pnOWT2aG-15" source="3nuBFxr9cyL0pnOWT2aG-22" target="-HL-1urw1G0gu24NOg6U-7">
          <mxGeometry relative="1" as="geometry" />
        </mxCell>
        <mxCell id="-HL-1urw1G0gu24NOg6U-5" style="edgeStyle=orthogonalEdgeStyle;rounded=0;orthogonalLoop=1;jettySize=auto;html=1;entryX=0.5;entryY=0;entryDx=0;entryDy=0;" edge="1" parent="3nuBFxr9cyL0pnOWT2aG-1" source="3nuBFxr9cyL0pnOWT2aG-9" target="3nuBFxr9cyL0pnOWT2aG-21">
          <mxGeometry relative="1" as="geometry" />
        </mxCell>
      </root>
    </mxGraphModel>
  </diagram>
</mxfile>
